<svg width="157" height="133" viewBox="0 0 157 133" fill="none" xmlns="http://www.w3.org/2000/svg">
<path d="M0 65.8508C0 76.9531 11.5777 87.3175 29.8309 93.1595C26.1859 110.342 29.1776 124.192 39.1704 129.588C49.4419 135.134 64.7439 131.295 79.2676 119.407C93.4249 130.815 107.733 135.305 117.717 129.893C127.978 124.33 131.1 109.542 127.354 91.8228C146.365 85.9369 157 77.0993 157 65.8508C157 55.006 145.401 45.6237 127.394 39.819C131.426 21.3676 128.009 7.85445 117.603 2.23512C107.57 -3.18226 93.0957 1.53954 78.7302 13.2462C63.7854 0.820506 49.4537 -2.97321 39.0574 2.66249C29.0343 8.09528 26.1741 22.1962 29.8309 39.6971C12.194 45.4551 0 55.0493 0 65.8508Z" fill="white"/>
<path d="M123.578 45.5831C122.132 45.1169 120.633 44.6758 119.09 44.2587C119.343 43.2893 119.576 42.3326 119.783 41.3921C123.181 25.9487 120.959 13.5074 113.374 9.41116C106.1 5.48344 94.2041 9.57871 82.1901 19.3691C81.0348 20.3105 79.8763 21.3073 78.7182 22.3519C77.9466 21.6607 77.1763 20.9928 76.4079 20.354C63.8168 9.88548 51.1962 5.47391 43.6179 9.58197C36.3511 13.5211 34.1991 25.2171 37.2575 39.8529C37.5528 41.2666 37.898 42.7102 38.2884 44.178C36.5022 44.6528 34.7778 45.159 33.1279 45.6974C18.3662 50.5166 8.93872 58.0695 8.93872 65.9038C8.93872 73.9951 19.0591 82.1108 34.4346 87.0318C35.648 87.4201 36.907 87.7873 38.2045 88.1359C37.7834 89.7234 37.417 91.2791 37.1095 92.7964C34.1934 107.178 36.4707 118.598 43.7182 122.512C51.2041 126.554 63.7677 122.399 76.0014 112.386C76.9683 111.594 77.9387 110.755 78.9108 109.875C80.1709 111.011 81.4289 112.087 82.6802 113.095C94.53 122.644 106.234 126.499 113.474 122.574C120.953 118.52 123.383 106.253 120.228 91.3274C119.987 90.1875 119.706 89.023 119.392 87.8377C120.274 87.5935 121.14 87.3413 121.985 87.0792C137.969 82.1201 148.369 74.1032 148.369 65.9038C148.369 58.0411 138.637 50.4374 123.578 45.5831Z" fill="#53C1DE"/>
<path d="M120.111 81.7853C119.349 82.0216 118.567 82.25 117.769 82.4715C116.005 77.2405 113.623 71.6781 110.709 65.9312C113.49 60.3212 115.78 54.8299 117.495 49.6329C118.921 50.0193 120.305 50.427 121.639 50.8571C134.542 55.0163 142.412 61.1657 142.412 65.904C142.412 70.9512 133.913 77.5031 120.111 81.7853ZM114.385 92.4109C115.78 99.0107 115.979 104.978 115.055 109.642C114.225 113.834 112.555 116.628 110.49 117.748C106.096 120.129 96.6989 117.033 86.5649 108.867C85.4031 107.931 84.2329 106.932 83.059 105.874C86.9878 101.851 90.9143 97.1731 94.7465 91.9784C101.487 91.4183 107.855 90.5026 113.63 89.2526C113.914 90.327 114.167 91.3806 114.385 92.4109ZM56.4736 117.336C52.1805 118.756 48.7613 118.796 46.6944 117.68C42.2964 115.305 40.468 106.136 42.962 93.8368C43.2476 92.4283 43.5876 90.9814 43.9795 89.5024C49.6912 90.6851 56.0127 91.5361 62.7693 92.049C66.6273 97.1322 70.6672 101.805 74.7384 105.896C73.8489 106.7 72.9629 107.465 72.0819 108.187C66.6722 112.614 61.2511 115.756 56.4736 117.336ZM36.361 81.7544C29.5623 79.5784 23.9476 76.7504 20.0991 73.6644C16.6409 70.8912 14.8949 68.1381 14.8949 65.904C14.8949 61.1499 22.4642 55.086 35.0886 50.9645C36.6204 50.4644 38.2239 49.9931 39.888 49.5504C41.6327 54.8648 43.9215 60.4211 46.6835 66.0398C43.8857 71.7418 41.5645 77.3867 39.8026 82.7634C38.6163 82.4441 37.4669 82.1081 36.361 81.7544ZM43.1029 38.7821C40.4826 26.2425 42.2229 16.783 46.6021 14.4093C51.2667 11.8806 61.5815 15.486 72.4529 24.5251C73.1478 25.1028 73.8454 25.7075 74.5451 26.3331C70.494 30.4063 66.491 35.0435 62.6673 40.0967C56.1098 40.6659 49.8327 41.5801 44.0614 42.8044C43.6986 41.4377 43.3772 40.0949 43.1029 38.7821ZM103.247 52.6884C101.867 50.4569 100.451 48.2782 99.0068 46.159C103.455 46.6856 107.718 47.3847 111.721 48.2401C110.519 51.8464 109.021 55.617 107.258 59.4825C105.993 57.2341 104.655 54.967 103.247 52.6884ZM78.7203 30.3191C81.4677 33.1063 84.219 36.218 86.9252 39.5943C84.1982 39.4737 81.4374 39.4109 78.6538 39.4109C75.8964 39.4109 73.156 39.4723 70.4458 39.5908C73.1548 36.2459 75.9299 33.1383 78.7203 30.3191ZM54.0367 52.727C52.6585 54.9647 51.3456 57.2194 50.1007 59.4783C48.3662 55.6263 46.8823 51.8385 45.6702 48.1811C49.6483 47.3475 53.8905 46.6659 58.3109 46.1492C56.8466 48.288 55.4186 50.4827 54.0367 52.7265V52.727ZM58.4382 86.0567C53.8711 85.5796 49.5652 84.9331 45.588 84.1225C46.8195 80.3997 48.3361 76.531 50.1074 72.5961C51.3555 74.8534 52.6736 77.109 54.0603 79.3516H54.0605C55.4729 81.6363 56.9362 83.8743 58.4382 86.0567ZM78.8851 101.882C76.062 99.0299 73.2461 95.8749 70.496 92.4813C73.1657 92.5793 75.8875 92.6295 78.6538 92.6295C81.4957 92.6295 84.3051 92.5696 87.0704 92.4543C84.3553 95.9091 81.6138 99.069 78.8851 101.882ZM107.315 72.3955C109.178 76.373 110.749 80.2215 111.997 83.8808C107.954 84.7444 103.589 85.4399 98.9904 85.9568C100.438 83.809 101.867 81.5928 103.271 79.3133C104.691 77.007 106.04 74.6972 107.315 72.3955ZM98.1111 76.5268C95.9316 80.0655 93.6939 83.4436 91.4223 86.6323C87.2848 86.9094 83.0104 87.052 78.6538 87.052C74.3148 87.052 70.0942 86.9258 66.0299 86.6788C63.6667 83.4483 61.3804 80.0602 59.2148 76.5573H59.2153C57.0553 73.0639 55.0674 69.541 53.2661 66.0379C55.0669 62.5266 57.0496 58.9998 59.1972 55.5127L59.1967 55.5134C61.3499 52.017 63.6161 48.6454 65.9574 45.4351C70.1041 45.1416 74.3562 44.9884 78.6535 44.9884H78.6538C82.9704 44.9884 87.228 45.1427 91.3734 45.4388C93.679 48.6257 95.9298 51.9863 98.0915 55.4832C100.278 59.0193 102.286 62.5227 104.102 65.9586C102.292 69.4536 100.288 72.9923 98.1111 76.5268ZM110.398 14.2434C115.068 16.7647 116.883 26.9329 113.95 40.2666C113.763 41.1174 113.552 41.984 113.323 42.8622C107.538 41.6124 101.257 40.6824 94.6802 40.1046C90.849 34.9959 86.8788 30.3515 82.8937 26.3305C83.9651 25.3654 85.0351 24.4451 86.1005 23.5767C96.3942 15.1883 106.015 11.8765 110.398 14.2434Z" fill="white"/>
<path d="M78.6559 54.2456C85.5321 54.2456 91.1066 59.4652 91.1066 65.9042C91.1066 72.343 85.5321 77.5628 78.6559 77.5628C71.7798 77.5628 66.2053 72.343 66.2053 65.9042C66.2053 59.4652 71.7798 54.2456 78.6559 54.2456Z" fill="#53C1DE"/>
</svg>
