<svg width="172" height="159" viewBox="0 0 172 159" fill="none" xmlns="http://www.w3.org/2000/svg">
<path d="M148.066 91.3023C142.052 91.3441 136.845 93.1253 132.477 95.7775C130.864 91.8413 129.252 88.4019 128.983 85.8335C128.681 82.8503 128.311 81.0268 128.681 77.4639C129.05 73.9003 130.73 68.8454 130.73 68.4311C130.696 68.0582 130.36 66.2351 126.9 66.1937C123.44 66.1522 120.449 67.0223 120.113 68.141C119.777 69.2597 119.106 71.8286 118.669 74.4803C118.064 78.3751 111.748 92.1724 108.153 99.4232C106.977 96.6057 105.969 94.1197 105.767 92.1305C105.465 89.1477 105.095 87.3243 105.465 83.7614C105.835 80.1977 107.515 75.1433 107.515 74.7289C107.481 74.356 107.145 72.533 103.685 72.4915C100.224 72.4501 97.2344 73.3202 96.8984 74.4389C96.5625 75.5576 96.1929 78.2093 95.4538 80.7782C94.7479 83.3471 86.3487 106.384 84.1649 112.392C83.0563 115.458 82.0823 117.902 81.3764 119.56C80.6709 121.217 81.3428 119.684 81.2756 119.85C80.6709 121.259 80.3349 122.046 80.3349 122.046V122.088C79.8646 123.123 79.3606 124.117 79.1251 124.117C78.9571 124.117 78.6212 121.341 79.1923 117.53C80.4354 109.533 83.4591 97.0619 83.4258 96.6061C83.4258 96.399 83.9966 94.2026 81.4769 93.0843C79.0243 91.9656 78.1511 93.8301 77.9492 93.8301C77.7476 93.8301 77.5797 94.493 77.5797 94.493C77.5797 94.493 80.301 80.4476 72.3722 80.4476C67.3999 80.4476 60.5461 87.1183 57.1529 93.209C55.0027 94.6592 50.4335 97.7248 45.5956 100.998C43.7478 102.241 41.8328 103.567 40.0186 104.769L39.6493 104.271C30.0407 91.6337 12.2681 82.6841 13.0072 65.6965C13.276 59.5229 15.023 43.2396 47.1417 23.5173C73.448 7.35831 94.5131 11.7917 98.1748 21.6528C103.382 35.7402 86.9199 61.926 59.5725 65.6965C49.1575 67.1466 43.6809 62.1746 42.3038 60.3101C40.8592 58.3628 40.6576 58.2799 40.12 58.6528C39.2465 59.2329 39.7841 60.9731 40.12 62.0089C40.9264 64.6192 44.286 69.2597 49.9975 71.58C55.003 73.6102 67.2326 74.7289 82.0151 67.6853C98.5783 59.7715 111.513 37.8118 107.717 19.4568C103.853 0.770411 78.7226 -5.36173 54.9698 5.03804C40.8252 11.253 25.5051 20.9484 14.4854 33.6685C1.38273 48.7502 -0.700267 61.926 0.173246 67.3952C3.23088 86.9103 25.0348 99.6304 33.7699 109.036C33.3332 109.325 32.93 109.615 32.5604 109.864C28.1929 112.516 11.5625 123.247 7.39653 134.6C2.693 147.444 8.13566 156.684 11.7641 157.927C22.9854 161.78 34.4755 154.861 40.6908 143.467C46.8723 132.073 46.1335 117.281 43.2778 110.527L43.1767 110.279L46.6035 107.793C48.8212 106.177 51.005 104.685 52.9197 103.4C51.8449 107.005 51.0719 111.273 50.6691 117.488C50.1987 124.78 52.6177 134.227 55.8094 137.956C57.2204 139.571 58.9002 139.613 59.9417 139.613C63.6374 139.613 65.3172 135.842 67.165 131.326C69.4496 125.816 71.4654 119.435 71.4654 119.435C71.4654 119.435 68.9457 136.713 75.833 136.713C78.3527 136.713 80.8725 132.694 82.0148 130.622V130.664C82.0148 130.664 82.082 130.539 82.2163 130.249C82.3573 129.992 82.4918 129.73 82.6195 129.462V129.38C83.6274 127.225 85.8784 122.294 89.2381 114.132C93.5717 103.608 97.738 90.4322 97.738 90.4322C97.738 90.4322 98.1412 93.664 99.3843 98.9674C100.123 102.117 101.736 105.555 102.979 108.911C101.971 110.652 101.366 111.646 101.366 111.646L101.4 111.688C100.594 113.014 99.6863 114.423 98.7459 115.831C95.319 120.886 91.2202 126.646 90.6827 128.303C90.0444 130.25 90.1788 131.7 91.4218 132.861C92.3289 133.689 93.9416 133.855 95.655 133.689C98.7459 133.44 100.896 132.488 101.971 131.907C103.651 131.162 105.566 130.043 107.414 128.386C110.774 125.32 112.823 120.969 112.621 115.169C112.521 111.978 111.681 108.829 110.639 105.846C110.942 105.308 111.244 104.769 111.546 104.189C116.855 94.6173 120.953 84.0937 120.953 84.0937C120.953 84.0937 121.356 87.3255 122.6 92.629C123.238 95.3221 124.515 98.2643 125.657 101.165C120.685 106.178 117.56 111.979 116.485 115.791C114.503 122.834 116.048 126.025 118.971 126.77C120.281 127.102 122.163 126.356 123.574 125.61C125.321 124.906 127.437 123.704 129.386 121.923C132.746 118.857 135.971 114.589 135.803 108.83C135.702 106.178 135.131 103.568 134.358 101.082C138.592 98.9272 144.068 97.6842 151.022 98.7201C165.973 100.875 168.929 112.393 168.359 117.199C167.787 122.006 164.663 124.657 163.621 125.486C162.58 126.273 162.244 126.564 162.344 127.143C162.479 128.014 162.949 127.972 163.856 127.807C165.099 127.558 171.718 123.871 171.987 115.004C172.39 103.608 163.621 91.1784 148.066 91.3023ZM32.762 139.241C27.8233 145.911 20.8688 148.439 17.9123 146.284C14.7206 144.005 15.9633 134.186 22.0447 127.101C25.7403 122.792 30.5446 118.814 33.7027 116.369C34.4083 115.831 35.4834 115.044 36.76 114.091C36.9616 113.925 37.096 113.842 37.096 113.842C37.3312 113.676 37.5999 113.469 37.8687 113.262C40.1197 123.372 37.9695 132.238 32.762 139.241ZM68.8785 108.953C67.165 114.132 63.5366 127.432 61.3528 126.686C59.4711 126.065 58.3291 115.997 60.9829 106.053C62.3268 101.039 65.1825 95.0727 66.8623 92.752C69.584 89.023 72.5402 87.78 73.2796 89.313C74.1531 91.3023 69.9535 105.721 68.8785 108.953ZM98.6787 126.521C97.9396 126.977 97.2677 127.308 96.9653 127.06C96.7301 126.894 97.2673 126.272 97.2673 126.272C97.2673 126.272 100.997 121.342 102.475 119.063C103.315 117.738 104.323 116.205 105.398 114.464V114.961C105.398 120.927 100.762 124.905 98.6787 126.521ZM121.659 120.057C121.121 119.56 121.188 118.027 123.002 113.221C123.708 111.315 125.321 108.124 128.109 105.1C128.445 106.343 128.647 107.544 128.613 108.663C128.58 116.121 124.279 118.897 121.659 120.057Z" fill="#CF649A"/>
</svg>
