<svg width="60" height="60" viewBox="0 0 60 60" fill="none" xmlns="http://www.w3.org/2000/svg">
<path d="M57.6 0H2.4C1.0725 0 0 1.0725 0 2.4V57.6C0 58.9275 1.0725 60 2.4 60H57.6C58.9275 60 60 58.9275 60 57.6V2.4C60 1.0725 58.9275 0 57.6 0ZM55.2 55.2H41.3925V36.765H49.1925L50.3625 27.7125H41.3925V21.93C41.3925 19.305 42.12 17.52 45.8775 17.52H50.67V9.42C49.8375 9.3075 46.995 9.06 43.68 9.06C36.765 9.06 32.0325 13.2825 32.0325 21.03V27.705H24.2175V36.7575H32.04V55.2H4.8V4.8H55.2V55.2Z" fill="white" fill-opacity="0.9"/>
</svg>
