<svg width="140" height="143" viewBox="0 0 140 143" fill="none" xmlns="http://www.w3.org/2000/svg">
<path d="M0 0H140V143H0V0Z" fill="#F7DF1E"/>
<path d="M36.8114 119.501L47.5252 112.878C49.592 116.621 51.4723 119.789 55.9823 119.789C60.3054 119.789 63.0309 118.061 63.0309 111.342V65.6505H76.1874V111.532C76.1874 125.451 68.1998 131.786 56.5463 131.786C46.0216 131.786 39.9123 126.219 36.8112 119.5" fill="black"/>
<path d="M83.3333 118.061L94.0457 111.726C96.8657 116.43 100.531 119.885 107.015 119.885C112.466 119.885 115.942 117.101 115.942 113.262C115.942 108.654 112.371 107.022 106.357 104.335L103.069 102.894C93.5764 98.7676 87.2797 93.5842 87.2797 82.641C87.2797 72.562 94.7977 64.8825 106.545 64.8825C114.909 64.8825 120.924 67.8585 125.246 75.6338L115.003 82.3528C112.747 78.2255 110.304 76.5939 106.545 76.5939C102.692 76.5939 100.249 79.0896 100.249 82.3528C100.249 86.3844 102.692 88.0167 108.33 90.5126L111.619 91.9524C122.803 96.8482 129.099 101.839 129.099 113.07C129.099 125.165 119.796 131.788 107.297 131.788C95.0802 131.788 87.1859 125.837 83.3335 118.061" fill="black"/>
</svg>
