<svg width="60" height="60" viewBox="0 0 60 60" fill="none" xmlns="http://www.w3.org/2000/svg">
<path d="M55.1775 0H4.8225C2.16 0 0 2.16 0 4.8225V55.1775C0 57.84 2.16 60 4.8225 60H55.1775C57.84 60 60 57.84 60 55.1775V4.8225C60 2.16 57.84 0 55.1775 0ZM55.1775 55.2C21.5925 55.1925 4.8 55.185 4.8 55.1775C4.8075 21.5925 4.815 4.8 4.8225 4.8C38.4075 4.8075 55.2 4.815 55.2 4.8225C55.1925 38.4075 55.185 55.2 55.1775 55.2ZM8.895 22.4925H17.7975V51.1275H8.895V22.4925ZM13.35 18.5775C16.1925 18.5775 18.51 16.2675 18.51 13.4175C18.51 12.7399 18.3765 12.0689 18.1172 11.4429C17.8579 10.8168 17.4778 10.248 16.9987 9.76883C16.5195 9.28968 15.9507 8.9096 15.3246 8.65028C14.6986 8.39097 14.0276 8.2575 13.35 8.2575C12.6724 8.2575 12.0014 8.39097 11.3754 8.65028C10.7493 8.9096 10.1805 9.28968 9.70133 9.76883C9.22218 10.248 8.8421 10.8168 8.58278 11.4429C8.32347 12.0689 8.19 12.7399 8.19 13.4175C8.1825 16.2675 10.4925 18.5775 13.35 18.5775ZM32.2725 36.96C32.2725 33.225 32.985 29.61 37.6125 29.61C42.1725 29.61 42.24 33.8775 42.24 37.2V51.1275H51.135V35.4225C51.135 27.7125 49.47 21.78 40.4625 21.78C36.135 21.78 33.2325 24.1575 32.04 26.4075H31.92V22.4925H23.3775V51.1275H32.2725V36.96Z" fill="white" fill-opacity="0.9"/>
</svg>
